<?xml version="1.0" encoding="UTF-8"?>
<!DOCTYPE svg PUBLIC "-//W3C//DTD SVG 1.1//EN" "http://www.w3.org/Graphics/SVG/1.1/DTD/svg11.dtd">
<!-- Creator: CorelDRAW 2017 -->
<svg xmlns="http://www.w3.org/2000/svg" xml:space="preserve" width="62px" height="62px" version="1.1" style="shape-rendering:geometricPrecision; text-rendering:geometricPrecision; image-rendering:optimizeQuality; fill-rule:evenodd; clip-rule:evenodd"
viewBox="0 0 15.84 15.84"
 xmlns:xlink="http://www.w3.org/1999/xlink">
 <defs>
  <style type="text/css">
   <![CDATA[
    .fil1 {fill:none}
    .fil2 {fill:#FEFEFE;fill-rule:nonzero}
    .fil0 {fill:#696B6D;fill-rule:nonzero}
   ]]>
  </style>
 </defs>
 <g id="Layer_x0020_1">
  <metadata id="CorelCorpID_0Corel-Layer"/>
  <path class="fil0" d="M14.24 8.28l-1.7 -1.71 0 0.96 -0.3 0c-0.37,0.63 -0.91,1.15 -1.56,1.49l1.86 0 0 0.96 1.7 -1.7z"/>
  <path class="fil0" d="M12.33 8.7c0,-1.74 -1.31,-3.17 -2.98,-3.38l0 -0.88 -1.71 1.6 0 0 0 0 1.71 1.6 0 -0.81c0.85,0.2 1.49,0.96 1.49,1.87 0,1.06 -0.86,1.92 -1.92,1.92l-4.68 0 0 1.49 4.68 0 0 0c0,0 0.01,0 0.01,0 1.87,0 3.4,-1.53 3.4,-3.41z"/>
  <path class="fil0" d="M7.72 10.38c-0.44,-0.35 -0.72,-0.89 -0.72,-1.49 0,-0.73 0.41,-1.36 1.01,-1.69l-1.12 -1.03c-0.82,0.62 -1.36,1.61 -1.36,2.72 0,0.53 0.13,1.04 0.35,1.49l1.84 0z"/>
  <rect class="fil1" width="15.84" height="15.84"/>
 </g>
 <g id="Layer_x0020_1_0">
  <metadata id="CorelCorpID_1Corel-Layer"/>
  <path class="fil2" d="M13.88 7.92l-1.7 -1.7 0 0.96 -0.3 0c-0.37,0.63 -0.91,1.15 -1.56,1.49l1.86 0 0 0.96 1.7 -1.71z"/>
  <path class="fil2" d="M11.97 8.35c0,-1.74 -1.31,-3.18 -2.98,-3.38l0 -0.88 -1.71 1.59 0 0.01 0 0 1.71 1.59 0 -0.8c0.85,0.19 1.49,0.96 1.49,1.87 0,1.05 -0.86,1.91 -1.92,1.91l-4.69 0 0 1.49 4.69 0 0 0c0,0 0.01,0 0.01,0 1.87,0 3.4,-1.52 3.4,-3.4z"/>
  <path class="fil2" d="M7.36 10.03c-0.44,-0.36 -0.72,-0.89 -0.72,-1.49 0,-0.73 0.41,-1.36 1.01,-1.69l-1.12 -1.03c-0.82,0.62 -1.36,1.61 -1.36,2.72 0,0.53 0.13,1.04 0.35,1.49l1.84 0z"/>
 </g>
</svg>
