<?xml version="1.0" encoding="UTF-8"?>
<!DOCTYPE svg PUBLIC "-//W3C//DTD SVG 1.1//EN" "http://www.w3.org/Graphics/SVG/1.1/DTD/svg11.dtd">
<!-- Creator: CorelDRAW 2017 -->
<svg xmlns="http://www.w3.org/2000/svg" xml:space="preserve" width="62px" height="62px" version="1.1" style="shape-rendering:geometricPrecision; text-rendering:geometricPrecision; image-rendering:optimizeQuality; fill-rule:evenodd; clip-rule:evenodd"
viewBox="0 0 55.48 55.48"
 xmlns:xlink="http://www.w3.org/1999/xlink">
 <defs>
  <style type="text/css">
   <![CDATA[
    .fil0 {fill:none}
    .fil2 {fill:#FEFEFE;fill-rule:nonzero}
    .fil1 {fill:#696B6D;fill-rule:nonzero}
   ]]>
  </style>
 </defs>
 <g id="Layer_x0020_1">
  <metadata id="CorelCorpID_0Corel-Layer"/>
  <rect class="fil0" width="55.48" height="55.48"/>
  <g id="_924740181504">
   <path class="fil1" d="M29.06 30.47c-3.4,0 -5.05,1.74 -5.05,1.74l-0.53 4.98 11.18 0 -0.41 -4.98c0,0 -1.8,-1.74 -5.19,-1.74z"/>
   <path class="fil1" d="M29.07 28.98c1.44,0 2.61,-1.17 2.61,-2.61l0 -1.49c0,-1.44 -1.17,-2.61 -2.61,-2.61 -1.44,0 -2.61,1.17 -2.61,2.61l0 1.49c0,1.44 1.17,2.61 2.61,2.61z"/>
   <path class="fil1" d="M16.01 18.54c-3.4,0 -5.05,1.74 -5.05,1.74l-0.53 4.97 0 0 11.18 0 -0.41 -4.97c0,0 -1.8,-1.74 -5.19,-1.74z"/>
   <path class="fil1" d="M16.02 17.05c1.44,0 2.61,-1.17 2.61,-2.61l0 -1.49c0,-1.44 -1.17,-2.61 -2.61,-2.61 -1.44,0 -2.61,1.17 -2.61,2.61l0 1.49c0,1.44 1.17,2.61 2.61,2.61z"/>
   <path class="fil1" d="M47.3 20.28c0,0 -1.8,-1.74 -5.19,-1.74 -3.39,0 -5.05,1.74 -5.05,1.74l-0.53 4.97 11.18 0 -0.41 -4.97z"/>
   <path class="fil1" d="M42.12 17.05c1.44,0 2.61,-1.17 2.61,-2.61l0 -1.49c0,-1.44 -1.17,-2.61 -2.61,-2.61 -1.44,0 -2.61,1.17 -2.61,2.61l0 1.49c0,1.44 1.17,2.61 2.61,2.61z"/>
   <path class="fil1" d="M16.01 40.91c-3.4,0 -5.05,1.74 -5.05,1.74l-0.53 4.97 0 0.01 11.18 0 -0.41 -4.98c0,0 -1.8,-1.74 -5.19,-1.74z"/>
   <path class="fil1" d="M18.63 36.81l0 -1.49c0,-1.44 -1.17,-2.61 -2.61,-2.61 -1.44,0 -2.61,1.17 -2.61,2.61l0 1.49c0,1.44 1.17,2.61 2.61,2.61 1.44,0 2.61,-1.17 2.61,-2.61z"/>
   <path class="fil1" d="M42.11 40.91c-3.39,0 -5.05,1.74 -5.05,1.74l-0.53 4.98 11.18 0 -0.41 -4.98c0,0 -1.8,-1.74 -5.19,-1.74z"/>
   <path class="fil1" d="M39.51 35.32l0 1.49c0,1.44 1.17,2.61 2.61,2.61 1.44,0 2.61,-1.17 2.61,-2.61l0 -1.49c0,-1.44 -1.17,-2.61 -2.61,-2.61 -1.44,0 -2.61,1.17 -2.61,2.61z"/>
  </g>
  <g id="_924740185440">
   <path class="fil2" d="M27.73 29.23c-3.39,0 -5.04,1.74 -5.04,1.74l-0.54 4.97 11.18 0 -0.41 -4.97c0,0 -1.8,-1.74 -5.19,-1.74z"/>
   <path class="fil2" d="M27.74 27.74c1.44,0 2.61,-1.17 2.61,-2.61l0 -1.49c0,-1.44 -1.17,-2.61 -2.61,-2.61 -1.44,0 -2.61,1.17 -2.61,2.61l0 1.49c0,1.44 1.17,2.61 2.61,2.61z"/>
   <path class="fil2" d="M14.68 17.3c-3.39,0 -5.04,1.74 -5.04,1.74l-0.54 4.97 0 0 11.18 0 -0.41 -4.97c0,0 -1.8,-1.74 -5.19,-1.74z"/>
   <path class="fil2" d="M14.69 15.81c1.44,0 2.61,-1.17 2.61,-2.61l0 -1.49c0,-1.44 -1.17,-2.61 -2.61,-2.61 -1.44,0 -2.61,1.17 -2.61,2.61l0 1.49c0,1.44 1.17,2.61 2.61,2.61z"/>
   <path class="fil2" d="M45.97 19.04c0,0 -1.8,-1.74 -5.19,-1.74 -3.39,0 -5.04,1.74 -5.04,1.74l-0.54 4.97 11.18 0 -0.41 -4.97z"/>
   <path class="fil2" d="M40.79 15.81c1.44,0 2.61,-1.17 2.61,-2.61l0 -1.49c0,-1.44 -1.17,-2.61 -2.61,-2.61 -1.44,0 -2.61,1.17 -2.61,2.61l0 1.49c0,1.44 1.17,2.61 2.61,2.61z"/>
   <path class="fil2" d="M14.68 39.67c-3.39,0 -5.04,1.74 -5.04,1.74l-0.54 4.97 0 0 11.18 0 -0.41 -4.97c0,0 -1.8,-1.74 -5.19,-1.74z"/>
   <path class="fil2" d="M17.3 35.57l0 -1.49c0,-1.44 -1.17,-2.61 -2.61,-2.61 -1.44,0 -2.61,1.17 -2.61,2.61l0 1.49c0,1.44 1.17,2.61 2.61,2.61 1.44,0 2.61,-1.17 2.61,-2.61z"/>
   <path class="fil2" d="M40.78 39.67c-3.39,0 -5.04,1.74 -5.04,1.74l-0.54 4.97 11.18 0 -0.41 -4.97c0,0 -1.8,-1.74 -5.19,-1.74z"/>
   <path class="fil2" d="M38.18 34.08l0 1.49c0,1.44 1.17,2.61 2.61,2.61 1.44,0 2.61,-1.17 2.61,-2.61l0 -1.49c0,-1.44 -1.17,-2.61 -2.61,-2.61 -1.44,0 -2.61,1.17 -2.61,2.61z"/>
  </g>
 </g>
</svg>
