<?xml version="1.0" encoding="UTF-8"?>
<!DOCTYPE svg PUBLIC "-//W3C//DTD SVG 1.1//EN" "http://www.w3.org/Graphics/SVG/1.1/DTD/svg11.dtd">
<!-- Creator: CorelDRAW 2017 -->
<svg xmlns="http://www.w3.org/2000/svg" xml:space="preserve" width="62px" height="62px" version="1.1" style="shape-rendering:geometricPrecision; text-rendering:geometricPrecision; image-rendering:optimizeQuality; fill-rule:evenodd; clip-rule:evenodd"
viewBox="0 0 9.02 9.02"
 xmlns:xlink="http://www.w3.org/1999/xlink">
 <defs>
  <style type="text/css">
   <![CDATA[
    .fil0 {fill:none}
    .fil2 {fill:#FEFEFE;fill-rule:nonzero}
    .fil1 {fill:#696B6D;fill-rule:nonzero}
   ]]>
  </style>
 </defs>
 <g id="Layer_x0020_1">
  <metadata id="CorelCorpID_0Corel-Layer"/>
  <rect class="fil0" width="9.02" height="9.02"/>
  <g id="_924740206656">
   <path class="fil1" d="M5.49 6.77c-0.44,0 -0.79,-0.35 -0.79,-0.79 0,-0.43 0.35,-0.78 0.79,-0.78 0.43,0 0.79,0.35 0.79,0.78 0,0.44 -0.36,0.79 -0.79,0.79zm-0.98 -1.93l-1.2 0 0 2.3 1.2 0 1.96 0 1.2 0 0 -2.3 -1.2 0 -1.96 0z"/>
   <path class="fil1" d="M3.79 4.23c-0.44,0 -0.79,-0.36 -0.79,-0.79 0,-0.44 0.35,-0.79 0.79,-0.79 0.44,0 0.79,0.35 0.79,0.79 0,0.43 -0.35,0.79 -0.79,0.79zm-0.98 -1.94l-1.2 0 0 2.3 1.2 0 1.96 0 1.2 0 0 -2.3 -1.2 0 -1.96 0z"/>
   <path class="fil1" d="M5.54 5.91c-0.08,-0.04 -0.17,-0.07 -0.17,-0.12 0,-0.05 0.04,-0.07 0.14,-0.07 0.09,0 0.16,0.01 0.24,0.03l0.05 -0.15c-0.09,-0.03 -0.15,-0.04 -0.24,-0.04l0 -0.17 -0.16 0 0.01 0.17c-0.14,0.02 -0.25,0.09 -0.25,0.23 0,0.17 0.15,0.23 0.28,0.27 0.09,0.03 0.19,0.06 0.19,0.12 0,0.06 -0.06,0.09 -0.18,0.09 -0.1,0 -0.17,-0.01 -0.26,-0.05l-0.06 0.16c0.07,0.03 0.15,0.05 0.28,0.05l-0.01 0.15 0.16 0 0 -0.15c0.15,-0.02 0.29,-0.1 0.29,-0.26 0,-0.15 -0.18,-0.22 -0.31,-0.26z"/>
   <path class="fil1" d="M7.25 3.98l0 -0.35c0,-0.21 -0.17,-0.37 -0.37,-0.37l-0.54 0 0 0.36 0.54 0 0 0.36 -0.42 0 0.6 0.61 0.61 -0.61 -0.42 0z"/>
   <path class="fil1" d="M2.4 5.44l0.42 0 -0.61 -0.61 -0.6 0.61 0.42 0 0 0.36c0,0.2 0.17,0.37 0.37,0.37l0.54 0 0 -0.37 -0.54 0 0 -0.36z"/>
   <path class="fil1" d="M3.55 3.44l0 0.39 -0.2 0 0 -0.39c0,-0.11 0.03,-0.2 0.09,-0.27 0.06,-0.06 0.15,-0.1 0.26,-0.12l0 -0.12 0.18 0 0 0.12c0.11,0.02 0.2,0.06 0.26,0.12 0.06,0.07 0.09,0.16 0.09,0.27l0 0.39 -0.2 0 0 -0.39c0,-0.13 -0.05,-0.21 -0.16,-0.23l0 0.48 -0.16 0 0 -0.48c-0.11,0.03 -0.16,0.1 -0.16,0.23z"/>
  </g>
  <g id="_924740143616">
   <path class="fil2" d="M5.36 6.57c-0.44,0 -0.79,-0.35 -0.79,-0.79 0,-0.43 0.35,-0.79 0.79,-0.79 0.44,0 0.79,0.36 0.79,0.79 0,0.44 -0.35,0.79 -0.79,0.79zm-0.98 -1.94l-1.2 0 0 2.31 1.2 0 1.96 0 1.2 0 0 -2.31 -1.2 0 -1.96 0z"/>
   <path class="fil2" d="M3.66 4.02c-0.43,0 -0.79,-0.35 -0.79,-0.78 0,-0.44 0.36,-0.79 0.79,-0.79 0.44,0 0.79,0.35 0.79,0.79 0,0.43 -0.35,0.78 -0.79,0.78zm-0.98 -1.93l-1.2 0 0 2.3 1.2 0 1.96 0 1.2 0 0 -2.3 -1.2 0 -1.96 0z"/>
   <path class="fil2" d="M5.42 5.7c-0.09,-0.03 -0.17,-0.06 -0.17,-0.12 0,-0.04 0.03,-0.07 0.13,-0.07 0.09,0 0.16,0.02 0.24,0.04l0.05 -0.15c-0.09,-0.03 -0.14,-0.04 -0.24,-0.05l0 -0.16 -0.15 0 0 0.17c-0.14,0.02 -0.25,0.09 -0.25,0.22 0,0.17 0.15,0.23 0.28,0.28 0.09,0.03 0.19,0.06 0.19,0.12 0,0.06 -0.06,0.09 -0.18,0.09 -0.1,0 -0.16,-0.02 -0.26,-0.05l-0.06 0.15c0.07,0.04 0.15,0.06 0.28,0.06l0 0.15 0.15 0 0 -0.15c0.16,-0.03 0.29,-0.1 0.29,-0.26 0,-0.16 -0.18,-0.22 -0.3,-0.27z"/>
   <path class="fil2" d="M7.12 3.78l0 -0.36c0,-0.2 -0.17,-0.37 -0.37,-0.37l-0.54 0 0 0.37 0.54 0 0 0.36 -0.42 0 0.61 0.61 0.6 -0.61 -0.42 0z"/>
   <path class="fil2" d="M2.27 5.24l0.42 0 -0.6 -0.61 -0.61 0.61 0.42 0 0 0.36c0,0.2 0.17,0.37 0.37,0.37l0.54 0 0 -0.37 -0.54 0 0 -0.36z"/>
   <path class="fil2" d="M3.42 3.24l0 0.39 -0.2 0 0 -0.39c0,-0.11 0.03,-0.2 0.09,-0.27 0.06,-0.06 0.15,-0.11 0.26,-0.12l0 -0.13 0.18 0 0 0.13c0.12,0.01 0.21,0.05 0.27,0.12 0.06,0.07 0.09,0.16 0.09,0.27l0 0.39 -0.21 0 0 -0.39c0,-0.13 -0.05,-0.21 -0.16,-0.23l0 0.47 -0.16 0 0 -0.47c-0.1,0.02 -0.16,0.1 -0.16,0.23z"/>
  </g>
 </g>
</svg>
