<?xml version="1.0" encoding="UTF-8"?>
<!DOCTYPE svg PUBLIC "-//W3C//DTD SVG 1.1//EN" "http://www.w3.org/Graphics/SVG/1.1/DTD/svg11.dtd">
<!-- Creator: CorelDRAW 2017 -->
<svg xmlns="http://www.w3.org/2000/svg" xml:space="preserve" width="62px" height="62px" version="1.1" style="shape-rendering:geometricPrecision; text-rendering:geometricPrecision; image-rendering:optimizeQuality; fill-rule:evenodd; clip-rule:evenodd"
viewBox="0 0 6.98 6.98"
 xmlns:xlink="http://www.w3.org/1999/xlink">
 <defs>
  <style type="text/css">
   <![CDATA[
    .fil0 {fill:none}
    .fil2 {fill:#FEFEFE;fill-rule:nonzero}
    .fil1 {fill:#696B6D;fill-rule:nonzero}
   ]]>
  </style>
 </defs>
 <g id="Layer_x0020_1">
  <metadata id="CorelCorpID_0Corel-Layer"/>
  <rect class="fil0" width="6.98" height="6.98"/>
  <g id="_924721430688">
   <polygon class="fil1" points="4.96,5.94 5.8,5.94 5.8,2.85 4.96,2.85 "/>
   <polygon class="fil1" points="3.83,5.94 4.68,5.94 4.68,4.16 3.83,4.16 "/>
   <polygon class="fil1" points="2.71,5.94 3.55,5.94 3.55,5.1 2.71,5.1 "/>
   <path class="fil1" d="M4.05 1.89c-0.26,-0.35 -0.63,-0.54 -1.06,-0.54l0 1.31 1.31 0c0,-0.27 -0.08,-0.54 -0.25,-0.77z"/>
   <path class="fil1" d="M2.8 2.85l0 -1.32c0,0 0,0 0,0 -0.75,0 -1.36,0.64 -1.31,1.4 0.04,0.65 0.57,1.19 1.23,1.23 0.76,0.05 1.39,-0.56 1.39,-1.31l-1.31 0z"/>
  </g>
  <g id="_924721432160">
   <polygon class="fil2" points="4.8,5.79 5.65,5.79 5.65,2.69 4.8,2.69 "/>
   <polygon class="fil2" points="3.68,5.79 4.52,5.79 4.52,4 3.68,4 "/>
   <polygon class="fil2" points="2.55,5.79 3.39,5.79 3.39,4.94 2.55,4.94 "/>
   <path class="fil2" d="M3.89 1.73c-0.25,-0.35 -0.62,-0.54 -1.06,-0.54l0 1.31 1.32 0c0,-0.27 -0.09,-0.53 -0.26,-0.77z"/>
   <path class="fil2" d="M2.65 2.69l0 -1.31c0,0 0,0 0,0 -0.76,0 -1.36,0.63 -1.32,1.39 0.04,0.66 0.58,1.19 1.23,1.23 0.76,0.05 1.4,-0.55 1.4,-1.31l-1.31 0z"/>
  </g>
 </g>
</svg>
