<?xml version="1.0" encoding="UTF-8"?>
<!DOCTYPE svg PUBLIC "-//W3C//DTD SVG 1.1//EN" "http://www.w3.org/Graphics/SVG/1.1/DTD/svg11.dtd">
<!-- Creator: CorelDRAW 2017 -->
<svg xmlns="http://www.w3.org/2000/svg" xml:space="preserve" width="62px" height="62px" version="1.1" style="shape-rendering:geometricPrecision; text-rendering:geometricPrecision; image-rendering:optimizeQuality; fill-rule:evenodd; clip-rule:evenodd"
viewBox="0 0 6.82 6.82"
 xmlns:xlink="http://www.w3.org/1999/xlink">
 <defs>
  <style type="text/css">
   <![CDATA[
    .fil0 {fill:none}
    .fil2 {fill:#FEFEFE;fill-rule:nonzero}
    .fil1 {fill:#696B6D;fill-rule:nonzero}
   ]]>
  </style>
 </defs>
 <g id="Layer_x0020_1">
  <metadata id="CorelCorpID_0Corel-Layer"/>
  <rect class="fil0" width="6.82" height="6.82"/>
  <g id="_924721867312">
   <path class="fil1" d="M3.5 2.65c-0.17,0 -0.32,-0.14 -0.32,-0.31 0,-0.18 0.15,-0.32 0.32,-0.32 0.18,0 0.32,0.14 0.32,0.32 0,0.17 -0.14,0.31 -0.32,0.31zm0 -1.17l-2.26 1.27 0 0.36 4.52 0 0 -0.36 -2.26 -1.27z"/>
   <polygon class="fil1" points="5.22,3.29 4.5,3.29 4.5,5.37 3.86,5.37 3.86,3.29 3.14,3.29 3.14,5.37 2.5,5.37 2.5,3.29 1.78,3.29 1.78,5.37 1.51,5.37 1.51,5.64 5.49,5.64 5.49,5.37 5.22,5.37 "/>
  </g>
  <g id="_924721866128">
   <path class="fil2" d="M3.41 2.5c-0.18,0 -0.32,-0.14 -0.32,-0.31 0,-0.18 0.14,-0.32 0.32,-0.32 0.17,0 0.31,0.14 0.31,0.32 0,0.17 -0.14,0.31 -0.31,0.31zm0 -1.17l-2.27 1.27 0 0.35 4.53 0.01 0 -0.36 -2.26 -1.27z"/>
   <polygon class="fil2" points="5.13,3.14 4.4,3.14 4.4,5.22 3.77,5.22 3.77,3.14 3.05,3.14 3.05,5.22 2.41,5.22 2.41,3.14 1.69,3.14 1.69,5.22 1.42,5.22 1.42,5.49 5.4,5.49 5.4,5.22 5.13,5.22 "/>
  </g>
 </g>
</svg>
