<?xml version="1.0" encoding="UTF-8"?>
<!DOCTYPE svg PUBLIC "-//W3C//DTD SVG 1.1//EN" "http://www.w3.org/Graphics/SVG/1.1/DTD/svg11.dtd">
<!-- Creator: CorelDRAW 2017 -->
<svg xmlns="http://www.w3.org/2000/svg" xml:space="preserve" width="62px" height="62px" version="1.1" style="shape-rendering:geometricPrecision; text-rendering:geometricPrecision; image-rendering:optimizeQuality; fill-rule:evenodd; clip-rule:evenodd"
viewBox="0 0 46.13 46.13"
 xmlns:xlink="http://www.w3.org/1999/xlink">
 <defs>
  <style type="text/css">
   <![CDATA[
    .fil0 {fill:none}
    .fil2 {fill:#FEFEFE;fill-rule:nonzero}
    .fil1 {fill:#696B6D;fill-rule:nonzero}
   ]]>
  </style>
 </defs>
 <g id="Layer_x0020_1">
  <metadata id="CorelCorpID_0Corel-Layer"/>
  <rect class="fil0" width="46.13" height="46.13"/>
  <g id="_924721840784">
   <path class="fil1" d="M23.94 17.89c-1.2,0 -2.17,-0.97 -2.17,-2.16 0,-1.2 0.97,-2.18 2.17,-2.18 1.2,0 2.17,0.98 2.17,2.18 0,1.19 -0.97,2.16 -2.17,2.16zm15.5 0.69l-15.5 -8.74 -15.5 8.74 0 2.41 31 0.01 0 -2.42z"/>
   <polygon class="fil1" points="26.42,22.23 21.46,22.23 21.46,26.57 26.42,26.57 "/>
   <polygon class="fil1" points="35.72,22.23 30.76,22.23 30.76,26.57 35.72,26.57 "/>
   <polygon class="fil1" points="17.12,22.23 12.16,22.23 12.16,36.49 10.3,36.49 10.3,38.35 20.22,38.35 20.22,36.49 17.12,36.49 "/>
   <path class="fil1" d="M21.46 36.58c0,0.98 0.79,1.77 1.77,1.77l13.14 0c1.01,0 1.83,-0.81 1.83,-1.82l0 -3.76 -16.74 0 0 3.81z"/>
   <path class="fil1" d="M38.2 29.64c0,-1.01 -0.82,-1.83 -1.83,-1.83l-13.14 0c-0.98,0 -1.77,0.8 -1.77,1.78l0 0.7 16.74 0 0 -0.65z"/>
  </g>
  <g id="_924721842896">
   <path class="fil2" d="M23.06 16.86c-1.2,0 -2.17,-0.97 -2.17,-2.17 0,-1.19 0.97,-2.17 2.17,-2.17 1.2,0 2.17,0.98 2.17,2.17 0,1.2 -0.97,2.17 -2.17,2.17zm15.5 0.69l-15.5 -8.75 -15.5 8.75 0 2.41 31 0 0 -2.41z"/>
   <polygon class="fil2" points="25.54,21.2 20.58,21.2 20.58,25.54 25.54,25.54 "/>
   <polygon class="fil2" points="34.84,21.2 29.88,21.2 29.88,25.54 34.84,25.54 "/>
   <polygon class="fil2" points="16.24,21.2 11.28,21.2 11.28,35.46 9.42,35.46 9.42,37.32 19.34,37.32 19.34,35.46 16.24,35.46 "/>
   <path class="fil2" d="M20.58 35.55c0,0.98 0.8,1.77 1.78,1.77l13.14 0c1.01,0 1.82,-0.81 1.82,-1.82l0 -3.76 -16.74 0 0 3.81z"/>
   <path class="fil2" d="M37.32 28.61c0,-1.01 -0.81,-1.83 -1.82,-1.83l-13.14 0c-0.98,0 -1.78,0.8 -1.78,1.78l0 0.7 16.74 0 0 -0.65z"/>
  </g>
 </g>
</svg>
