<?xml version="1.0" encoding="UTF-8"?>
<!DOCTYPE svg PUBLIC "-//W3C//DTD SVG 1.1//EN" "http://www.w3.org/Graphics/SVG/1.1/DTD/svg11.dtd">
<!-- Creator: CorelDRAW 2017 -->
<svg xmlns="http://www.w3.org/2000/svg" xml:space="preserve" width="62px" height="62px" version="1.1" style="shape-rendering:geometricPrecision; text-rendering:geometricPrecision; image-rendering:optimizeQuality; fill-rule:evenodd; clip-rule:evenodd"
viewBox="0 0 16.58 16.59"
 xmlns:xlink="http://www.w3.org/1999/xlink">
 <defs>
  <style type="text/css">
   <![CDATA[
    .fil0 {fill:none}
    .fil2 {fill:#FEFEFE;fill-rule:nonzero}
    .fil1 {fill:#696B6D;fill-rule:nonzero}
   ]]>
  </style>
 </defs>
 <g id="Layer_x0020_1">
  <metadata id="CorelCorpID_0Corel-Layer"/>
  <rect class="fil0" width="16.58" height="16.59"/>
  <g id="_924721890864">
   <path class="fil1" d="M8.55 6.43c-0.43,0 -0.78,-0.35 -0.78,-0.78 0,-0.43 0.35,-0.78 0.78,-0.78 0.43,0 0.78,0.35 0.78,0.78 0,0.43 -0.35,0.78 -0.78,0.78zm0 -2.89l-5.57 3.14 0 0.87 11.14 0 0 -0.87 -5.57 -3.14z"/>
   <polygon class="fil1" points="12.78,10.45 12.78,7.99 11,7.99 11,10.67 11.89,11.12 "/>
   <polygon class="fil1" points="6.1,7.99 4.31,7.99 4.31,13.12 3.64,13.12 3.64,13.79 7.21,13.79 7.21,13.12 6.1,13.12 "/>
   <polygon class="fil1" points="9.44,7.99 7.66,7.99 7.66,11.34 9.44,12.01 "/>
   <polygon class="fil1" points="10.55,10.89 9.44,12.45 7.66,11.78 7.66,13.79 13.68,13.79 13.68,10.22 11.89,11.56 "/>
  </g>
  <g id="_924721891952">
   <path class="fil2" d="M8.29 6.06c-0.43,0 -0.78,-0.35 -0.78,-0.78 0,-0.43 0.35,-0.78 0.78,-0.78 0.43,0 0.78,0.35 0.78,0.78 0,0.43 -0.35,0.78 -0.78,0.78zm0 -2.89l-5.57 3.14 0 0.87 11.15 0 0 -0.87 -5.58 -3.14z"/>
   <polygon class="fil2" points="12.53,10.08 12.53,7.62 10.74,7.62 10.74,10.3 11.64,10.74 "/>
   <polygon class="fil2" points="5.84,7.62 4.06,7.62 4.06,12.75 3.39,12.75 3.39,13.42 6.95,13.42 6.95,12.75 5.84,12.75 "/>
   <polygon class="fil2" points="9.18,7.62 7.4,7.62 7.4,10.97 9.18,11.64 "/>
   <polygon class="fil2" points="10.3,10.52 9.18,12.08 7.4,11.41 7.4,13.42 13.42,13.42 13.42,9.85 11.64,11.19 "/>
  </g>
 </g>
</svg>
