<?xml version="1.0" encoding="UTF-8"?>
<!DOCTYPE svg PUBLIC "-//W3C//DTD SVG 1.1//EN" "http://www.w3.org/Graphics/SVG/1.1/DTD/svg11.dtd">
<!-- Creator: CorelDRAW 2017 -->
<svg xmlns="http://www.w3.org/2000/svg" xml:space="preserve" width="62px" height="62px" version="1.1" style="shape-rendering:geometricPrecision; text-rendering:geometricPrecision; image-rendering:optimizeQuality; fill-rule:evenodd; clip-rule:evenodd"
viewBox="0 0 9.52 9.52"
 xmlns:xlink="http://www.w3.org/1999/xlink">
 <defs>
  <style type="text/css">
   <![CDATA[
    .fil0 {fill:none}
    .fil2 {fill:#FEFEFE;fill-rule:nonzero}
    .fil1 {fill:#696B6D;fill-rule:nonzero}
   ]]>
  </style>
 </defs>
 <g id="Layer_x0020_1">
  <metadata id="CorelCorpID_0Corel-Layer"/>
  <rect class="fil0" width="9.52" height="9.52"/>
  <g id="_924740576432">
   <path class="fil1" d="M4.92 2.67c0.32,0 0.61,0.08 0.88,0.21 0.03,-0.08 0.07,-0.15 0.13,-0.22 -0.3,-0.16 -0.65,-0.25 -1.01,-0.25 -0.36,0 -0.7,0.09 -1,0.25 0.05,0.07 0.09,0.14 0.13,0.22 0.26,-0.13 0.56,-0.21 0.87,-0.21z"/>
   <path class="fil1" d="M3 4.59c0,0 0,0 0,0 -0.02,0 -0.04,0 -0.06,0 -0.07,0 -0.13,-0.01 -0.19,-0.02 0,0.01 0,0.02 0,0.02 0,0.76 0.38,1.42 0.97,1.81 0.01,-0.09 0.04,-0.18 0.07,-0.26 -0.48,-0.35 -0.79,-0.91 -0.79,-1.55z"/>
   <path class="fil1" d="M6.84 4.59c0,0 0,0 0,0 0,0.64 -0.31,1.2 -0.78,1.55 0.03,0.08 0.05,0.17 0.07,0.26 0.58,-0.39 0.97,-1.05 0.97,-1.81 0,0 0,-0.01 0,-0.02 -0.06,0.01 -0.13,0.02 -0.19,0.02 -0.02,0 -0.05,0 -0.07,0z"/>
   <path class="fil1" d="M6.98 3.98l0 0.21 -0.21 0 0 -0.2c-0.18,0 -0.29,-0.03 -0.38,-0.08l0.08 -0.21c0.13,0.04 0.22,0.06 0.36,0.07 0.16,0 0.24,-0.04 0.24,-0.12 0,-0.09 -0.13,-0.13 -0.26,-0.17 -0.17,-0.07 -0.38,-0.15 -0.38,-0.38 0,-0.19 0.16,-0.28 0.35,-0.31l0 -0.24 0.21 0 0 0.23c0.13,0.01 0.21,0.03 0.33,0.07l-0.07 0.2c-0.12,-0.03 -0.21,-0.05 -0.33,-0.05 -0.14,0 -0.19,0.04 -0.19,0.1 0,0.08 0.12,0.12 0.23,0.16 0.18,0.07 0.42,0.16 0.42,0.38 0,0.22 -0.19,0.32 -0.4,0.34zm1.14 -0.61c0,-0.67 -0.54,-1.21 -1.21,-1.21 -0.41,0 -0.76,0.2 -0.98,0.5 -0.06,0.07 -0.1,0.14 -0.13,0.22 -0.07,0.15 -0.11,0.32 -0.11,0.49 0,0.66 0.51,1.18 1.15,1.22 0.02,0 0.05,0 0.07,0 0.06,0 0.13,-0.01 0.19,-0.02 0.58,-0.09 1.02,-0.59 1.02,-1.2z"/>
   <path class="fil1" d="M2.36 4.06l0 -0.3c0,0 0.23,-0.19 0.58,-0.19 0.34,0 0.57,0.19 0.57,0.19l0 0.3c-0.15,0.13 -0.35,0.21 -0.57,0.21 -0.22,0 -0.42,-0.08 -0.58,-0.21zm0.32 -1.07c0,-0.14 0.12,-0.25 0.26,-0.25 0.14,0 0.25,0.11 0.25,0.25l0 0.17c0,0.14 -0.11,0.25 -0.25,0.25 -0.14,0 -0.26,-0.11 -0.26,-0.25l0 -0.17zm0.32 1.6c0.64,-0.04 1.15,-0.56 1.15,-1.22 0,-0.17 -0.03,-0.34 -0.1,-0.49 -0.04,-0.08 -0.08,-0.15 -0.13,-0.22 -0.22,-0.3 -0.58,-0.5 -0.98,-0.5 -0.67,0 -1.22,0.54 -1.22,1.21 0,0.61 0.45,1.11 1.03,1.2 0.06,0.01 0.12,0.02 0.19,0.02 0.02,0 0.04,0 0.06,0z"/>
   <path class="fil1" d="M4.92 6.26c-0.17,0 -0.32,0.14 -0.32,0.32 0,0.17 0.15,0.32 0.32,0.32 0.18,0 0.32,-0.15 0.32,-0.32 0,-0.18 -0.14,-0.32 -0.32,-0.32z"/>
   <path class="fil1" d="M5.65 6.66l-0.05 0.18 -0.22 0.04c-0.04,0.01 -0.08,0.05 -0.07,0.09l0.01 0.23 -0.17 0.08 -0.16 -0.15c-0.04,-0.03 -0.09,-0.03 -0.13,0l-0.16 0.15 -0.18 -0.08 0.02 -0.23c0,-0.04 -0.03,-0.08 -0.08,-0.09l-0.22 -0.04 -0.04 -0.18 0.18 -0.13c0.04,-0.03 0.06,-0.08 0.03,-0.12l-0.11 -0.19 0.12 -0.15 0.21 0.06c0.05,0.02 0.1,-0.01 0.12,-0.05l0.08 -0.21 0.19 0 0.08 0.21c0.02,0.04 0.07,0.07 0.11,0.05l0.22 -0.06 0.12 0.14 -0.12 0.2c-0.02,0.04 -0.01,0.09 0.03,0.12l0.19 0.13zm-0.73 -1.3c-0.52,0 -0.96,0.32 -1.13,0.78 -0.03,0.08 -0.06,0.17 -0.07,0.26 -0.01,0.06 -0.01,0.12 -0.01,0.18 0,0.67 0.54,1.21 1.21,1.21 0.67,0 1.22,-0.54 1.22,-1.21 0,-0.06 -0.01,-0.12 -0.01,-0.18 -0.02,-0.09 -0.04,-0.18 -0.07,-0.26 -0.18,-0.46 -0.62,-0.78 -1.14,-0.78z"/>
  </g>
  <g id="_924740582768">
   <path class="fil2" d="M4.76 2.46c0.32,0 0.61,0.07 0.88,0.21 0.03,-0.08 0.07,-0.15 0.12,-0.22 -0.3,-0.16 -0.64,-0.25 -1,-0.25 -0.36,0 -0.7,0.09 -1,0.25 0.05,0.07 0.09,0.14 0.13,0.22 0.26,-0.14 0.56,-0.21 0.87,-0.21z"/>
   <path class="fil2" d="M2.84 4.38c0,0 0,0 0,-0.01 -0.02,0.01 -0.04,0.01 -0.06,0.01 -0.07,0 -0.13,-0.01 -0.19,-0.02 0,0.01 0,0.01 0,0.02 0,0.76 0.38,1.42 0.97,1.81 0.01,-0.09 0.04,-0.18 0.07,-0.26 -0.48,-0.35 -0.79,-0.92 -0.79,-1.55z"/>
   <path class="fil2" d="M6.68 4.37c0,0.01 0,0.01 0,0.01 0,0.63 -0.31,1.2 -0.78,1.55 0.03,0.08 0.05,0.17 0.06,0.26 0.59,-0.39 0.98,-1.05 0.98,-1.81 0,-0.01 0,-0.01 0,-0.02 -0.06,0.01 -0.13,0.02 -0.19,0.02 -0.03,0 -0.05,0 -0.07,-0.01z"/>
   <path class="fil2" d="M6.82 3.77l0 0.21 -0.21 0 0 -0.2c-0.18,-0.01 -0.29,-0.04 -0.39,-0.08l0.09 -0.21c0.13,0.04 0.22,0.06 0.36,0.06 0.16,0 0.24,-0.04 0.24,-0.12 0,-0.08 -0.13,-0.12 -0.26,-0.16 -0.17,-0.07 -0.38,-0.15 -0.38,-0.39 0,-0.18 0.16,-0.28 0.35,-0.3l0 -0.24 0.21 0 -0.01 0.23c0.14,0 0.22,0.02 0.34,0.07l-0.07 0.2c-0.12,-0.03 -0.21,-0.05 -0.33,-0.05 -0.14,0 -0.19,0.03 -0.19,0.09 0,0.08 0.12,0.12 0.23,0.17 0.18,0.07 0.42,0.16 0.42,0.37 0,0.22 -0.19,0.32 -0.4,0.35zm1.14 -0.61c0,-0.67 -0.54,-1.21 -1.21,-1.21 -0.41,0 -0.76,0.19 -0.99,0.5 -0.05,0.07 -0.09,0.14 -0.12,0.22 -0.07,0.15 -0.11,0.32 -0.11,0.49 0,0.65 0.51,1.18 1.15,1.22 0.02,0 0.04,0 0.07,0 0.06,0 0.13,-0.01 0.19,-0.02 0.58,-0.09 1.02,-0.59 1.02,-1.2z"/>
   <path class="fil2" d="M2.2 3.85l0 -0.3c0,0 0.23,-0.2 0.58,-0.2 0.34,0 0.57,0.2 0.57,0.2l0 0.3c-0.15,0.13 -0.35,0.21 -0.57,0.21 -0.22,0 -0.42,-0.08 -0.58,-0.21zm0.32 -1.07c0,-0.14 0.12,-0.26 0.26,-0.26 0.14,0 0.25,0.12 0.25,0.26l0 0.16c0,0.15 -0.11,0.26 -0.25,0.26 -0.14,0 -0.26,-0.11 -0.26,-0.26l0 -0.16zm0.32 1.59c0.64,-0.03 1.15,-0.56 1.15,-1.21 0,-0.17 -0.03,-0.34 -0.1,-0.49 -0.04,-0.08 -0.08,-0.15 -0.13,-0.22 -0.22,-0.31 -0.58,-0.5 -0.98,-0.5 -0.67,0 -1.22,0.54 -1.22,1.21 0,0.61 0.45,1.11 1.03,1.2 0.06,0.01 0.12,0.02 0.19,0.02 0.02,0 0.04,0 0.06,-0.01z"/>
   <path class="fil2" d="M4.76 6.04c-0.17,0 -0.32,0.15 -0.32,0.32 0,0.18 0.15,0.32 0.32,0.32 0.18,0 0.32,-0.14 0.32,-0.32 0,-0.17 -0.14,-0.32 -0.32,-0.32z"/>
   <path class="fil2" d="M5.49 6.45l-0.05 0.18 -0.22 0.04c-0.04,0 -0.08,0.04 -0.07,0.09l0.01 0.23 -0.17 0.08 -0.17 -0.15c-0.03,-0.04 -0.08,-0.04 -0.12,0l-0.16 0.15 -0.18 -0.08 0.02 -0.23c0,-0.05 -0.03,-0.09 -0.08,-0.09l-0.22 -0.04 -0.04 -0.19 0.18 -0.12c0.04,-0.03 0.06,-0.08 0.03,-0.12l-0.11 -0.2 0.12 -0.15 0.21 0.07c0.05,0.01 0.1,-0.01 0.11,-0.05l0.09 -0.21 0.19 0 0.08 0.21c0.02,0.04 0.07,0.06 0.11,0.05l0.21 -0.07 0.13 0.15 -0.12 0.2c-0.02,0.04 -0.01,0.09 0.03,0.12l0.19 0.13zm-0.73 -1.3c-0.52,0 -0.96,0.32 -1.13,0.78 -0.03,0.08 -0.06,0.17 -0.07,0.26 -0.01,0.06 -0.01,0.11 -0.01,0.17 0,0.67 0.54,1.22 1.21,1.22 0.67,0 1.22,-0.55 1.22,-1.22 0,-0.06 -0.01,-0.11 -0.02,-0.17 -0.01,-0.09 -0.03,-0.18 -0.06,-0.26 -0.18,-0.46 -0.62,-0.78 -1.14,-0.78z"/>
  </g>
 </g>
</svg>
